<svg xmlns="http://www.w3.org/2000/svg" viewBox="0 0 1024 1024" role="img" aria-labelledby="title desc">
  <title id="title">Leo brush avatar mark</title>
  <desc id="desc">A transparent hand-drawn brush mark forming a lowercase leo monogram.</desc>
  <defs>
    <linearGradient id="ink" x1="260" y1="165" x2="810" y2="855" gradientUnits="userSpaceOnUse">
      <stop offset="0" stop-color="#315f51"/>
      <stop offset="1" stop-color="#18352c"/>
    </linearGradient>
  </defs>

  <g fill="none" stroke="url(#ink)" stroke-linecap="round" stroke-linejoin="round">
    <path d="M383 151 C353 244 320 360 293 471 C267 581 246 706 296 785 C335 846 422 845 482 786 C532 737 558 673 531 635 C507 601 451 619 430 666 C404 723 447 785 524 811 C632 847 762 805 821 706 C889 592 853 462 744 408 C634 353 513 391 459 491 C441 525 433 557 431 582" stroke-width="76"/>
  </g>

  <path fill="#4f8f7b" d="M666 507 C675 548 685 558 726 567 C685 576 675 586 666 627 C657 586 647 576 606 567 C647 558 657 548 666 507z"/>
</svg>
