<svg version="1.1" width="1024" height="1024" viewBox="0 0 2048 2048">
    <path
        transform="translate(0, 250)"
        d="M 1050, 133
            A 660, 660 0 1, 1 1050, 1453
            A 660, 660 0 1, 1 1050, 133 Z"
        fill="#fff"
    />
    <path
        transform="translate(998,517)"
        d="m0 0h24l14 2 15 3 15 6 16 9 10 8 16 16 10 15 8 17 8 24 4 22 2 22v27l-2 30-4 29-7 36-13 52-9 29-9 26-5 14-8 20-6 16-8 19-6 13-5 12-9 17-11 23-10 19-13 24-10 17-8 13-5 9-12 19-15 22-7 10-13 18-11 16-9 12 1 14 6 27 4 14 9 24 8 16 10 16 7 8v2h2l5 6 12 9 17 9 17 5 17 2h10l11-1 22-6 19-8 14-8 15-11 11-9 6-5 16-16 9-11 11-13 8-10 10-9 11-5 7-2h19l15 5 10 7 8 9 6 10 3 14v10l-2 10-7 14-8 9-9 11-9 10-11 12-21 21-8 7-15 12-18 12-18 11-15 8-23 9-20 6-20 4-18 2h-30l-23-3-19-4-28-10-16-9-9-5-17-12-13-12-12-12-9-11-10-14-12-20-7-14-10-24v-2h-3l-2 4-6 8h-2l-2 4-12 13-10 10-6 7-8 7-26 26h-2v2l-8 7-13 12-5 4-5 5-16 15-12 11-11 8-10 4-10 2h-10l-12-3-10-5-9-7-8-10-5-12-2-9v-15l3-11 7-11 2-3h2v-2l10-8h2v-2l11-9 12-11 8-7 10-9 4-4h2l2-4 4-2v-2l8-7 3-3h2v-2h2l2-4 7-6 5-6h2l2-4 29-29 7-8 12-12 4-5h2l2-4 8-10h2l2-4 9-10 3-4-4-49-2-59v-71l2-64 2-34 4-47 5-40 8-51 5-26 9-39 7-28 4-13 5-12 6-16 7-15 10-20 12-19 9-12 9-10 11-11 18-13 16-9 16-6 16-4z"
        fill="#000"
    />
    <path
        transform="translate(1011,615)"
        d="m0 0 9 2 6 4 7 8 5 12 2 12v42l-5 40-8 39-6 24-12 40-13 37-6 16-14 34-6 13-7 16-8 16-9 17-8 16-9 16-21 36h-3v-54l1-37 4-56 3-30 5-43 8-51 10-49 7-24 5-17 9-24 6-14 7-12 9-12 9-9 12-6z"
        fill="#fff"
    />
    <path
        transform="translate(1399,1252)"
        d="m0 0h7l5 3 3 5 8 26 16 49 14 44 14 40 5 15v10l-4 6-6 3h-198l-5-4-3-6 1-7 11-14 8-10 10-13 11-14 29-38 10-14h2l2-4 8-12h2l2-4 16-21 12-16 14-18z"
        fill="#000"
    />
</svg>